<?xml version="1.0" standalone="no"?>
<!DOCTYPE svg PUBLIC "-//W3C//DTD SVG 20010904//EN"
 "http://www.w3.org/TR/2001/REC-SVG-20010904/DTD/svg10.dtd">
<svg version="1.0" xmlns="http://www.w3.org/2000/svg"
 width="60" height="60" viewBox="0 0 321.000000 319.000000"
 preserveAspectRatio="xMidYMid meet">
<metadata>
Created by potrace 1.16, written by Peter Selinger 2001-2019
</metadata>
<g transform="translate(0.000000,319.000000) scale(0.100000,-0.100000)"
fill="#008FDC" stroke="none">
<path d="M1500 3151 c-14 -5 -50 -9 -81 -10 -31 -1 -69 -5 -85 -10 -16 -5 -67
-17 -114 -27 -47 -9 -89 -21 -95 -26 -5 -4 -17 -8 -27 -8 -10 0 -26 -4 -36
-10 -9 -5 -44 -21 -77 -35 -107 -46 -115 -50 -115 -57 0 -5 -9 -8 -20 -8 -11
0 -20 -3 -20 -7 0 -5 -24 -21 -53 -37 -28 -16 -54 -32 -57 -35 -3 -3 -39 -32
-81 -63 -92 -70 -258 -241 -288 -296 -6 -11 -17 -26 -24 -34 -32 -34 -132
-215 -161 -293 -10 -27 -23 -54 -27 -59 -5 -6 -9 -20 -9 -33 0 -13 -4 -23 -9
-23 -5 0 -11 -15 -14 -32 -3 -18 -8 -44 -11 -58 -61 -261 -64 -472 -11 -725 9
-44 19 -95 22 -112 3 -18 9 -33 14 -33 5 0 9 -10 9 -23 0 -13 4 -27 9 -33 4
-5 17 -31 27 -59 29 -80 127 -261 154 -285 3 -3 18 -25 35 -50 31 -48 288
-310 304 -310 5 0 22 -11 38 -24 15 -13 51 -36 78 -51 28 -16 52 -31 55 -35 6
-8 121 -63 180 -86 25 -9 49 -21 55 -26 5 -4 19 -8 32 -8 13 0 23 -4 23 -9 0
-5 15 -11 33 -14 17 -4 66 -13 107 -22 236 -51 437 -51 680 0 41 9 90 18 108
22 17 3 32 9 32 14 0 5 9 9 20 9 11 0 28 4 38 9 38 21 135 61 147 61 8 0 15 3
17 8 2 4 29 20 61 37 31 16 57 33 57 37 0 4 6 8 13 8 6 0 31 15 54 33 22 17
54 41 70 52 28 20 234 223 265 262 9 12 25 34 35 50 10 15 26 37 35 47 10 11
18 26 18 33 0 7 4 13 9 13 5 0 13 10 17 23 4 12 10 24 13 27 12 9 79 153 93
198 7 23 16 42 20 42 5 0 8 9 8 20 0 11 4 28 9 38 33 62 75 326 75 467 0 98
-17 247 -39 340 -9 39 -19 87 -22 108 -3 20 -10 37 -14 37 -5 0 -9 10 -9 23 0
13 -4 27 -9 33 -4 5 -17 32 -27 59 -21 57 -58 130 -97 192 -15 24 -27 46 -27
51 0 4 -8 17 -18 28 -10 11 -27 33 -38 49 -33 51 -46 66 -159 180 -112 112
-127 125 -180 159 -16 11 -37 27 -47 36 -10 9 -34 25 -55 36 -21 11 -58 32
-83 45 -25 14 -76 38 -115 54 -38 16 -74 32 -79 37 -6 4 -20 8 -32 8 -13 0
-25 4 -28 9 -3 4 -20 11 -38 14 -18 3 -64 13 -103 22 -135 32 -387 52 -435 36z
m726 -752 c44 -24 57 -36 83 -80 21 -34 21 -43 21 -783 l0 -748 -36 7 c-36 6
-46 10 -91 33 -13 7 -31 12 -41 12 -10 0 -22 4 -27 9 -6 4 -35 16 -65 26 -30
10 -70 25 -89 33 -18 8 -48 19 -65 25 -20 7 -186 13 -471 17 -367 4 -444 7
-464 20 -32 19 -82 70 -98 98 -19 32 -19 1212 0 1244 18 32 51 65 89 88 32 19
48 20 625 20 579 0 593 0 629 -21z"/>
<path d="M1113 1413 c-25 -9 -14 -48 20 -67 102 -62 200 -101 292 -119 76 -14
316 -20 328 -8 6 6 28 11 49 11 21 0 46 4 56 9 9 6 42 18 72 27 30 10 69 25
85 34 94 54 105 62 105 85 0 33 -33 41 -68 17 -47 -32 -139 -72 -214 -93 -59
-17 -102 -21 -223 -21 -195 0 -296 25 -424 104 -45 28 -55 31 -78 21z"/>
</g>
</svg>
